<?xml version="1.0" encoding="UTF-8" standalone="no"?>
<!-- Created with Inkscape (http://www.inkscape.org/) -->

<svg
   width="83.057518mm"
   height="158.06136mm"
   viewBox="0 0 83.057518 158.06136"
   version="1.1"
   id="svg1"
   inkscape:export-filename="favico.png"
   inkscape:export-xdpi="14.678984"
   inkscape:export-ydpi="14.678984"
   inkscape:version="1.4.2 (f4327f4, 2025-05-13)"
   sodipodi:docname="favico.svg"
   xmlns:inkscape="http://www.inkscape.org/namespaces/inkscape"
   xmlns:sodipodi="http://sodipodi.sourceforge.net/DTD/sodipodi-0.dtd"
   xmlns="http://www.w3.org/2000/svg"
   xmlns:svg="http://www.w3.org/2000/svg">
  <sodipodi:namedview
     id="namedview1"
     pagecolor="#ffffff"
     bordercolor="#000000"
     borderopacity="0.25"
     inkscape:showpageshadow="2"
     inkscape:pageopacity="0.0"
     inkscape:pagecheckerboard="0"
     inkscape:deskcolor="#d1d1d1"
     inkscape:document-units="mm"
     inkscape:zoom="1.1307647"
     inkscape:cx="4.4217863"
     inkscape:cy="309.96722"
     inkscape:window-width="1920"
     inkscape:window-height="1111"
     inkscape:window-x="-9"
     inkscape:window-y="-9"
     inkscape:window-maximized="1"
     inkscape:current-layer="layer1" />
  <defs
     id="defs1" />
  <g
     inkscape:label="Layer 1"
     inkscape:groupmode="layer"
     id="layer1"
     transform="translate(-62.70625,-28.045833)">
    <path
       style="display:inline;fill:#e05c1a;fill-opacity:1;stroke-width:0.467363"
       d="m 104.96194,171.93968 c -4.15745,-5.52432 -6.88422,-10.35605 -9.366668,-16.59723 -2.712725,-6.82015 -3.945453,-12.47519 -3.945453,-18.09947 0,-4.11162 0.668681,-9.38105 1.183245,-9.32441 0.153263,0.0169 0.756534,1.25233 1.340604,2.74546 1.383165,3.53593 3.51495,5.10829 7.009892,5.17033 3.91187,0.0694 5.97698,-2.05694 6.57955,-6.77479 0.19898,-1.55799 -0.0489,-3.58648 -0.9209,-7.53492 -1.08967,-4.93426 -1.19325,-6.15153 -1.19387,-14.03155 -8e-4,-8.026761 0.0775,-8.905392 1.11983,-12.59751 0.61628,-2.182918 1.55487,-4.889148 2.08575,-6.013847 l 0.96523,-2.044922 0.25783,4.706493 c 0.30435,5.555766 0.95462,7.921503 5.31842,19.348916 l 3.19515,8.3671 -0.0188,5.49091 c -0.0164,4.7614 -0.19008,6.09884 -1.30772,10.06667 -0.70887,2.51666 -1.11581,4.57575 -0.9043,4.57575 0.82175,0 3.96743,-2.28281 5.25284,-3.81197 0.74317,-0.88409 1.49501,-1.42733 1.67075,-1.2072 0.58946,0.73841 0.25243,4.74209 -0.70123,8.33001 -0.5199,1.95602 -1.95869,6.03102 -3.19731,9.05556 -1.23861,3.02454 -2.07485,5.42112 -1.8583,5.32568 1.19755,-0.5276 8.33824,-8.96731 10.68874,-12.63318 3.18929,-4.97403 6.1716,-12.06624 6.88623,-16.37606 0.27555,-1.66182 0.42145,-4.91893 0.32423,-7.23801 -0.16311,-3.89093 -0.34427,-4.60441 -2.34616,-9.23996 -2.19933,-5.09274 -3.42323,-10.29381 -4.10379,-17.439498 l -0.29883,-3.137662 -0.37727,3.399137 c -0.23442,2.112177 -0.21791,5.577054 0.0436,9.151513 0.61577,8.41649 -0.10869,12.05365 -2.85401,14.32877 -0.96496,0.7997 -0.99378,0.79046 -0.65322,-0.20929 2.15209,-6.31769 2.33873,-9.29441 0.97817,-15.60118 -0.68797,-3.189018 -0.92102,-5.727626 -0.92015,-10.023068 0.001,-6.372463 0.68234,-10.140473 2.66967,-14.770078 l 1.17721,-2.742369 -1.10713,0.332597 c -5.23906,1.57389 -8.64666,6.748833 -9.23053,14.017892 l -0.29598,3.68491 -0.69812,-1.94424 c -0.96034,-2.674525 -0.8826,-7.132669 0.18745,-10.750211 2.30004,-7.775763 2.95146,-11.732107 3.17496,-19.28291 0.27044,-9.137002 -0.37795,-13.345015 -3.10853,-20.174199 -1.3946,-3.487891 -2.71536,-5.820119 -4.942,-8.726736 -1.67131,-2.1817 -3.15217,-3.825375 -3.29079,-3.65261 -0.13862,0.172765 0.31816,1.839675 1.01508,3.704241 2.88592,7.721199 3.2283,17.5441 0.96797,27.770918 l -0.6691,3.027383 -0.71019,-1.985978 c -0.74749,-2.090309 -2.97012,-4.834573 -4.95801,-6.121601 -1.02079,-0.660895 -5.506835,-2.914126 -5.803338,-2.914878 -0.05744,-1.4e-4 0.639614,0.931273 1.548998,2.069815 4.04612,5.065773 5.12602,12.234473 3.00077,19.920119 -0.4334,1.567293 -2.23509,6.614829 -4.003766,11.21673 -5.554938,14.453324 -5.897004,16.512393 -4.036616,24.298013 1.45319,6.08151 1.611382,8.45498 0.631378,9.47327 -0.916699,0.95251 -2.556298,-0.2274 -3.698406,-2.66149 -0.786138,-1.67542 -0.856301,-2.68189 -0.856301,-12.28382 V 93.112148 l -1.318008,-3.137665 c -0.724906,-1.725713 -1.926458,-3.843636 -2.670117,-4.706495 -1.346446,-1.562259 -1.350891,-1.563352 -1.062209,-0.261467 0.159445,0.719045 0.399314,3.220794 0.533045,5.559433 0.348459,6.093777 -0.630394,9.712706 -4.932071,18.234506 -5.673334,11.2391 -7.343098,16.9842 -7.754697,26.68142 -0.194847,4.59049 -0.0979,6.40005 0.476308,8.89004 1.197205,5.19161 3.123454,9.10571 6.701486,13.6173 3.621349,4.56619 7.229081,7.74009 12.758867,11.22462 3.322545,2.09366 11.724767,6.26194 12.622527,6.26194 0.2251,0 -0.78824,-1.59122 -2.25186,-3.5361 z"
       id="path11"
       inkscape:label="Fire 3" />
    <path
       id="path3-5"
       style="fill:#f7f4ef;fill-opacity:1;stroke-width:0.432157"
       d="m 104.80021,57.677383 c -1.12619,-0.04286 -2.17502,0.743617 -2.57023,1.778133 -0.55709,1.465704 -0.53401,3.055421 -0.72563,4.590946 -0.0771,0.665057 -0.16312,1.348637 -0.28377,1.982478 -0.26947,1.451438 -0.76082,2.890944 -1.659955,4.078444 -0.883002,1.207204 -1.788121,2.397945 -2.666098,3.608787 -0.731226,1.035695 -1.455899,2.166612 -1.561362,3.463467 -0.08488,0.847881 0.212823,1.730648 0.838438,2.317816 0.526775,0.531411 1.275818,0.781799 2.013702,0.792599 0.465349,0.01585 0.930206,-0.05434 1.37905,-0.174246 -1.431552,1.44826 -3.091714,2.650527 -4.807087,3.738779 -1.317676,0.843738 -2.736408,1.56705 -4.115938,2.338943 -0.996746,0.568518 -1.982324,1.223505 -2.689704,2.142448 -0.615791,0.853813 -0.79684,2.045298 -0.309385,3.00083 0.475006,0.982853 1.508884,1.603436 2.572298,1.737381 1.665697,0.26987 3.368561,0.08278 5.011914,-0.243716 0.759921,-0.169399 1.501683,-0.4137 2.223821,-0.703514 -0.743498,1.487808 -1.83305,2.773707 -3.049411,3.897003 -1.045273,0.969611 -2.148287,1.882905 -3.357469,2.642518 -2.003963,1.301272 -4.18727,2.292531 -6.20734,3.565801 -0.581173,0.3886 -1.174194,0.78345 -1.645377,1.30483 -0.706829,0.86996 -0.739333,2.21411 -0.05116,3.10473 0.621813,0.85507 1.66811,1.24398 2.669064,1.44248 1.590315,0.3339 3.223379,0.35676 4.841525,0.39978 1.128432,0.0149 2.257372,-0.003 3.385389,0.0377 -1.150281,1.2315 -2.333768,2.43545 -3.593695,3.55548 -1.682467,1.4859 -3.51989,2.81206 -5.530297,3.81927 -0.395634,0.19921 -0.850125,0.4086 -1.279467,0.58792 -0.400714,0.16899 -0.780759,0.3115 -1.202079,0.45597 -1.625721,0.55437 -3.290752,1.0204 -4.832225,1.79252 -0.862748,0.44121 -1.753013,0.96379 -2.267556,1.8155 -0.450316,0.71647 -0.558237,1.64615 -0.216525,2.42879 0.335836,0.81458 1.06384,1.39746 1.858301,1.73587 1.588244,0.73331 3.382558,0.81036 5.101265,0.68922 3.253377,-0.2016 6.429184,-0.99762 9.570691,-1.82099 -0.875374,1.6354 -2.317578,2.87023 -3.7977,3.94446 -1.77315,1.26627 -3.717443,2.31706 -5.667353,3.2489 -1.955499,0.92839 -4.008136,1.76359 -6.032101,2.54563 -1.92963,0.76623 -3.89346,1.5474 -5.556747,2.81746 -0.819465,0.63576 -1.507231,1.54743 -1.595157,2.60963 -0.08152,0.98146 0.471164,1.96028 1.327682,2.43459 0.996026,0.55764 2.163852,0.65644 3.28182,0.72065 2.561717,0.10394 5.12468,-0.15381 7.653792,-0.54596 2.258669,-0.33949 4.473549,-0.91561 6.655488,-1.58289 0.310348,-0.0901 0.620506,-0.1808 0.930963,-0.27044 -0.719235,1.14787 -1.80794,1.99763 -2.89233,2.78085 -2.189824,1.52987 -4.596318,2.70975 -6.989775,3.88087 -1.948217,0.92577 -3.893008,1.87692 -5.928786,2.61915 -0.835001,0.30962 -1.695384,0.54292 -2.558418,0.75776 -1.140817,0.35306 -2.124445,1.32581 -2.299861,2.53377 -0.228151,1.37347 0.571201,2.81252 1.814642,3.41239 1.337606,0.73663 2.900188,0.8512 4.396351,0.89784 2.762512,0.05 5.508365,-0.36858 8.212277,-0.89673 1.730087,-0.35507 3.440033,-0.79871 5.156563,-1.21265 -2.65385,2.61972 -5.939414,4.48905 -9.306055,6.03509 -2.441064,1.11662 -4.979445,1.99911 -7.4506,3.04434 -2.055754,0.86482 -4.101462,1.77101 -6.038186,2.88161 -0.636566,0.39222 -1.279427,0.82197 -1.733894,1.42626 -0.671629,0.93175 -0.723897,2.31779 0.02479,3.22254 0.67982,0.85081 1.781807,1.20959 2.83084,1.3135 2.107658,0.25002 4.231455,0.005 6.327129,-0.24159 3.482999,-0.4467 6.928266,-1.1672 10.309469,-2.11346 3.764552,-1.02533 7.492748,-2.17926 11.208956,-3.36608 1.997985,-0.64522 3.988242,-1.31452 5.962195,-2.03022 -0.0667,2.75911 -0.211307,5.54016 -0.336611,8.30846 -0.205018,4.36552 -0.4254,8.7303 -0.63904,13.0954 2.876469,0.0667 5.749759,0.31554 8.628479,0.24088 0.77396,-0.0242 1.59828,-0.36384 1.97424,-1.07753 0.44314,-0.74344 0.37535,-1.6391 0.44377,-2.46916 0.16076,-3.28951 0.15747,-6.58419 0.16912,-9.87684 0.004,-2.3529 -0.005,-4.70626 0.0597,-7.05849 3.37662,1.18776 6.76039,2.38392 10.25213,3.1931 4.50213,1.07928 9.08968,1.75812 13.68615,2.28253 2.48311,0.26345 4.99427,0.46951 7.487,0.21365 1.11247,-0.13452 2.26686,-0.43546 3.12744,-1.18966 0.86239,-0.77372 1.29451,-2.08844 0.83519,-3.18729 -0.39287,-0.98795 -1.30869,-1.62729 -2.20263,-2.12863 -0.66788,-0.37128 -1.41422,-0.57879 -2.16587,-0.68976 -1.19401,-0.3781 -2.3443,-0.8788 -3.50674,-1.34206 -2.51594,-1.03949 -5.04029,-2.14696 -7.49529,-3.35253 -1.51852,-0.77261 -2.83854,-1.87316 -4.07246,-3.03542 -0.87951,-0.85619 -1.75078,-1.73534 -2.45634,-2.74408 1.166,0.24249 2.31106,0.57525 3.47844,0.81246 2.98685,0.6482 6.01879,1.11394 9.0717,1.28863 1.16935,0.0526 2.36816,0.10477 3.5078,-0.21024 0.91378,-0.27878 1.81083,-0.80409 2.30735,-1.64487 0.48452,-0.8527 0.42517,-1.98054 -0.1726,-2.76365 -0.63537,-0.89001 -1.66814,-1.35037 -2.63465,-1.78587 -0.87887,-0.37301 -1.81755,-0.69914 -2.68905,-1.02326 -1.40017,-0.5241 -2.74754,-1.17942 -4.0703,-1.87358 -0.74793,-0.39614 -1.48948,-0.82595 -2.1944,-1.25784 -2.24546,-1.38367 -4.38091,-2.95972 -6.29776,-4.77453 -0.40508,-0.38367 -0.83347,-0.82195 -1.18347,-1.21184 -0.6103,-0.68729 -1.19054,-1.40956 -1.64952,-2.20814 1.78248,0.30842 3.53575,0.75073 5.29594,1.1487 2.58429,0.59723 5.17133,1.23524 7.81541,1.50386 1.14931,0.10684 2.38932,0.0597 3.39876,-0.56224 1.01013,-0.63621 1.6798,-1.87684 1.44787,-3.07764 -0.19552,-1.1236 -1.02851,-2.00323 -1.927,-2.64195 -2.08696,-1.52893 -4.54532,-2.42326 -6.72169,-3.80521 -2.14865,-1.29527 -4.21601,-2.7225 -6.23186,-4.21488 -1.26485,-0.96251 -2.52561,-1.94102 -3.66047,-3.05667 -0.0414,-0.0718 -0.28562,-0.24101 -0.17128,-0.25406 2.20113,-0.0972 4.38381,0.0537 6.58145,0.10294 0.90451,0.004 1.82012,0.009 2.71019,-0.17101 0.97459,-0.21656 1.87092,-0.83204 2.34083,-1.7243 0.57884,-1.02634 0.55463,-2.39459 -0.16883,-3.34555 -0.77312,-1.06697 -2.11617,-1.5834 -3.40278,-1.6066 -0.74504,-0.0172 -1.43358,-0.33335 -2.1177,-0.59494 -1.61566,-0.67822 -3.13928,-1.55452 -4.63816,-2.45677 -1.53858,-0.96004 -3.07295,-1.94757 -4.43757,-3.1483 -0.4148,-0.38471 -0.81894,-0.79643 -1.10247,-1.28998 1.70408,0.0584 3.37811,0.42549 5.07724,0.54414 1.32832,0.10694 2.68964,0.16133 3.99363,-0.16124 0.95859,-0.26368 1.85755,-0.96196 2.11657,-1.95489 0.2826,-1.02341 -0.13187,-2.1386 -0.88057,-2.85915 -0.88623,-0.94751 -2.03171,-1.59098 -3.14689,-2.22821 -1.20495,-0.65732 -2.42378,-1.306063 -3.508,-2.155095 -1.87246,-1.411793 -3.58021,-3.09314 -4.80194,-5.107638 -0.18841,-0.312028 -0.35815,-0.636635 -0.48766,-0.977778 0.76407,0.156432 1.51239,0.390361 2.28958,0.479888 1.27869,0.204893 2.65316,0.255331 3.85578,-0.297987 1.02701,-0.504098 1.75445,-1.622663 1.6724,-2.781303 -0.0449,-1.17934 -0.77119,-2.21158 -1.63624,-2.961775 -1.34934,-1.220586 -2.95582,-2.10168 -4.53511,-2.983904 -0.84759,-0.457608 -1.71217,-0.89811 -2.52914,-1.352606 -0.70284,-0.391144 -1.39526,-0.803603 -2.05353,-1.266489 1.08554,0.07871 2.2313,0.15194 3.25529,-0.287184 0.91381,-0.395409 1.58553,-1.352592 1.52737,-2.363817 -0.0644,-0.964554 -0.67585,-1.762916 -1.24661,-2.497629 -0.73427,-0.964729 -1.6119,-1.807729 -2.40284,-2.705629 -1.30488,-1.428171 -2.20092,-3.194844 -2.71397,-5.052775 -0.18859,-0.631711 -0.3447,-1.268698 -0.48414,-1.895702 -0.43949,-1.96119 -0.70221,-3.966067 -1.31249,-5.885937 -0.31091,-0.933558 -0.71229,-1.890625 -1.45592,-2.564405 -0.53267,-0.479629 -1.23354,-0.783966 -1.9549,-0.789382 z"
       inkscape:label="Big Tree 2" />
    <path
       style="fill:#3d5a3e;fill-opacity:1;stroke-width:0.432157"
       d="m 104.25558,183.94709 -3.12129,-0.13031 0.25348,-5.15265 c 0.80151,-16.29269 0.81483,-17.37863 0.21012,-17.12819 -4.786167,1.98219 -18.564564,6.25307 -23.589731,7.3121 -8.334854,1.75652 -14.095929,1.79186 -13.07659,0.0802 0.484296,-0.81321 4.738799,-2.86239 10.617949,-5.11411 6.269643,-2.40128 10.740554,-5.04203 13.838952,-8.17399 1.538523,-1.55518 2.100921,-2.43984 2.003512,-3.15155 -0.166915,-1.21959 -0.451448,-1.20599 -6.498696,0.31053 -8.205951,2.05788 -14.63554,1.95898 -14.63554,-0.22512 0,-0.55785 0.389977,-0.92456 1.166601,-1.09701 2.145643,-0.47644 4.943776,-1.646 10.220528,-4.27196 6.950038,-3.45867 9.823797,-6.20348 9.823797,-9.38299 0,-1.35318 0.280839,-1.37404 -5.939057,0.44116 -5.81252,1.69631 -14.42343,2.11283 -14.42343,0.69768 0,-0.96947 2.067753,-2.25327 6.093677,-3.78335 9.459814,-3.59527 14.884233,-7.2405 16.579212,-11.14131 0.92505,-2.12891 0.633249,-3.33626 -0.72486,-2.99912 -0.522068,0.1296 -2.186247,0.55677 -3.698179,0.94928 -4.745668,1.23202 -8.70362,1.6507 -10.598674,1.12113 -3.173169,-0.88673 -1.981761,-2.18321 3.590615,-3.90727 4.162325,-1.2878 7.825864,-3.68008 11.717914,-7.65176 4.783371,-4.88122 4.635723,-5.17459 -2.604296,-5.17459 -4.706498,0 -6.980042,-0.47911 -6.681668,-1.40806 0.09224,-0.28718 1.688671,-1.32604 3.54762,-2.30858 4.036288,-2.13336 5.711759,-3.305067 8.160703,-5.706989 1.964295,-1.926584 3.464795,-4.507277 3.464795,-5.959064 0,-1.243878 -1.642422,-1.56604 -3.617571,-0.709589 -2.016133,0.874218 -5.913321,1.09366 -6.609011,0.372136 -0.752981,-0.780941 0.142914,-1.706223 3.201596,-3.306619 6.992516,-3.658703 11.622562,-8.444595 9.739042,-10.066846 -0.50956,-0.438867 -0.92344,-0.402423 -2.1125,0.186024 -3.246506,1.606642 -4.109928,0.402666 -1.87463,-2.614028 0.69973,-0.944338 1.84557,-2.489994 2.54632,-3.434794 1.51072,-2.036874 2.16317,-4.225576 2.50503,-8.403281 0.18332,-2.240306 0.42485,-3.111071 0.88813,-3.201876 0.96969,-0.190058 1.65404,1.324843 2.37143,5.249516 1.0598,5.79787 2.10144,8.13671 4.92464,11.057493 1.37914,1.426808 2.43115,2.824919 2.33781,3.106925 -0.16431,0.49639 -1.32767,0.566891 -3.84723,0.233154 -0.81621,-0.108117 -1.37124,0.09258 -1.69687,0.613563 -0.94936,1.51888 0.47744,3.014996 5.21446,5.46781 4.75838,2.463877 6.66828,4.041892 6.25259,5.16609 -0.30763,0.831954 -2.07638,0.908326 -4.76498,0.205751 -6.75977,-1.76644 -1.87136,7.474148 6.17689,11.676204 5.72179,2.98739 4.80188,4.37263 -2.25614,3.39742 -3.40994,-0.47116 -3.87508,-0.44884 -4.58726,0.22002 -1.71988,1.61528 -0.48425,3.65133 4.04644,6.66764 4.0767,2.71407 7.82425,4.50537 9.42646,4.50579 1.71213,5.3e-4 2.62087,1.02361 1.80986,2.03774 -0.4881,0.61034 -1.30099,0.68555 -5.47921,0.50697 -2.69834,-0.11533 -5.32729,-0.048 -5.8421,0.14965 -1.10793,0.42533 -1.2019,1.55885 -0.24656,2.97432 1.30849,1.93871 9.26829,7.6774 13.61476,9.81568 4.49855,2.21311 5.70096,3.35602 4.5624,4.33664 -0.79689,0.68634 -3.16064,0.41579 -9.53381,-1.09121 -8.83013,-2.08799 -9.45738,-2.01414 -8.25513,0.97197 1.7975,4.46457 10.17709,10.83832 17.74455,13.49702 3.84994,1.35261 4.55782,2.1296 2.63234,2.88932 -1.38853,0.54787 -7.9325,-0.15409 -12.87371,-1.38094 -3.61303,-0.89707 -3.98915,-0.919 -4.61535,-0.26914 -0.45815,0.47546 -0.59163,1.0802 -0.40695,1.84381 0.37709,1.55923 4.33771,5.57156 7.10175,7.19447 2.22086,1.30398 11.80154,5.39139 12.63715,5.39139 0.88521,0 2.57987,1.0484 2.57987,1.59604 0,1.7278 -4.42958,1.92244 -13.58658,0.59701 -6.8881,-0.99702 -11.1993,-2.02162 -16.76852,-3.9852 -2.08697,-0.73582 -4.12856,-1.44915 -4.53687,-1.58518 -0.69306,-0.23091 -0.74238,0.45628 -0.74238,10.34394 0,5.8252 -0.14318,10.65249 -0.31817,10.72732 -0.17499,0.0748 -1.72274,0.0774 -3.43945,0.006 z"
       id="path3"
       inkscape:label="Tree 2" />
  </g>
</svg>
